# xmcd
#
# Track frame offsets:
#	150
#	14153
#	34203
#	49009
#	75700
#	91980
#	106856
#
# Disc length: 1758 seconds
#
# Revision: 0
# Processed by: cddbd v1.5.2PL0 Copyright (c) Steve Scherf et al.
# Submitted via: dBpowerAMP V4.0
#
DISCID=5006dc07
DTITLE=Sixten and det Sixtinska Kapellet - Gröt i kaffepannan
DYEAR=1900
DGENRE=Blues
TTITLE0=Gröt i kaffepannan (Vackra Anna)
TTITLE1=Sue Balloo
TTITLE2=What You've done to me
TTITLE3=Kongolaisen blues
TTITLE4=Hopplös blues
TTITLE5=En dag skall din sorg gå över
TTITLE6=Amazing Grace/The House ofthe rising sun
EXTD=
EXTT0=
EXTT1=
EXTT2=
EXTT3=
EXTT4=
EXTT5=
EXTT6=
PLAYORDER=
